<svg width="45" height="45" viewBox="0 0 45 45" fill="none" xmlns="http://www.w3.org/2000/svg">
<mask id="mask0_114_175" style="mask-type:alpha" maskUnits="userSpaceOnUse" x="0" y="0" width="45" height="45">
<rect width="45" height="45" fill="#D9D9D9"/>
</mask>
<g mask="url(#mask0_114_175)">
<path d="M43.1183 6.47418C43.4036 6.30129 43.4999 6.27248 43.4999 6.17859C43.4999 6.07006 43.3363 6.0763 43.1606 6.07402C38.5993 6.01279 33.051 6.71875 27.3091 9.47894C24.3986 10.8779 21.4384 12.8045 18.5316 15.4263C15.0171 18.5965 10.6821 23.9094 8.51539 30.905C8.05095 32.4049 7.25964 35.3748 7.25964 39.5498C7.25964 40.9409 7.26165 41.7379 7.33569 42.0522C7.38718 42.2707 7.53373 42.2165 7.73271 41.8659C7.91385 41.5467 8.70693 40.1738 9.8629 38.5273C11.3027 36.4759 13.2875 33.9742 15.0195 32.5057C15.2213 32.3346 15.3676 32.1224 15.6975 32.4687C16.0742 32.864 17.7929 34.4267 22.7223 37.5544C27.6517 40.6822 33.6469 43.1079 38.2253 44.3394C39.4637 44.6726 39.1034 44.1386 38.7581 43.8099C35.6151 40.8176 31.2988 34.8357 29.3294 31.5637C26.1378 26.2626 25.1568 23.1841 25.0235 22.8639C24.8903 22.5438 24.9582 22.3499 25.1599 22.0789C25.3796 21.7834 27.0401 19.5392 29.738 16.8425C32.4358 14.1456 36.8929 10.5624 40.0541 8.5307C42.0446 7.25122 42.5393 6.82512 43.1183 6.47418Z" fill="#B5191A"/>
<path d="M1.66042 22.7778C1.81594 22.887 7.64347 27.026 7.7827 27.1246C7.92204 27.223 8.08595 27.3305 8.20664 27.0506C9.72678 23.5289 11.5251 20.4904 13.2511 17.9138C14.977 15.337 18.2167 11.4735 21.8716 8.71533C22.1247 8.5242 22.1229 8.58603 22.1229 8.21048C22.1229 7.83493 22.238 0.582064 22.238 0.286475C22.238 0.0617213 22.1068 -0.11777 21.9109 0.0954579C19.2192 3.02614 18.0229 4.73784 16.2184 7.69326C14.4139 10.6484 12.379 14.6383 12.2944 14.7984C12.2096 14.9585 12.1247 15.0323 11.7855 15.217C11.4464 15.4017 9.53891 16.4113 7.14077 18.0615C4.74264 19.7116 2.0298 22.0451 1.80555 22.2236C1.58166 22.4022 1.32729 22.5438 1.6603 22.7778" fill="#FD082A"/>
</g>
</svg>
