<svg width="45" height="45" viewBox="0 0 45 45" fill="none" xmlns="http://www.w3.org/2000/svg">
<mask id="mask0_114_174" style="mask-type:alpha" maskUnits="userSpaceOnUse" x="0" y="0" width="45" height="45">
<rect width="45" height="45" fill="#D9D9D9"/>
</mask>
<g mask="url(#mask0_114_174)">
<path d="M22.5037 0C34.93 0.000195133 45.0026 10.0734 45.0027 22.4922L44.9949 23.0732C44.6869 35.2339 34.7359 44.9998 22.5037 45C10.0752 45 0.00268555 34.9214 0.00268555 22.4922C0.00276272 10.0732 10.0753 0 22.5037 0ZM22.4626 1.17285C10.67 1.17288 1.11304 10.7289 1.11304 22.5215C1.11315 34.3075 10.6701 43.8632 22.4626 43.8633C34.2531 43.8633 43.8092 34.3075 43.8093 22.5215C43.8093 10.7295 34.2531 1.17285 22.4626 1.17285Z" fill="#FD082A"/>
<path d="M22.6037 1.98523L22.1832 3.31015L20.8245 3.30215L21.9165 4.10406L21.5348 5.47055L22.6308 4.65478L23.7595 5.45454L23.3593 4.15732L24.4061 3.29384L23.0074 3.28584L22.6037 1.98523ZM13.3416 4.50702L12.9213 5.83256L11.5568 5.82394L12.6492 6.62462L12.2763 7.99449L13.3696 7.1778L14.5033 7.9751L14.0938 6.67603L15.1467 5.81686L13.7452 5.80486L13.3416 4.50702ZM6.45266 11.1073L6.03578 12.4338L4.67462 12.4199L5.76792 13.22L5.38861 14.592L6.47545 13.7763L7.6177 14.5729L7.2153 13.2708L8.26272 12.4153L6.85999 12.4092L6.45266 11.1073ZM3.71771 20.7241L3.29744 22.0463L1.93628 22.0333L3.03112 22.8343L2.65304 24.2033L3.74388 23.3884L4.88059 24.1928L4.46834 22.8888L5.52593 22.0306H4.11919L3.71771 20.7241ZM6.54257 29.8339L6.12692 31.1594L4.76298 31.1521L5.86059 31.9506L5.47574 33.3155L6.57058 32.4985L7.70422 33.2989L7.3052 32.0051L8.35016 31.1462L6.9502 31.137L6.54257 29.8339ZM12.926 36.4979L12.5042 37.8222L11.1479 37.8072L12.2335 38.6143L11.861 39.9842L12.9515 39.1663L14.0852 39.9703L13.6834 38.6697L14.7336 37.8041L13.3324 37.7964L12.926 36.4979ZM22.5782 39.592L22.1564 40.9157L20.7949 40.9083L21.8938 41.7062L21.5089 43.0804L22.6037 42.2606L23.742 43.0687L23.3368 41.7585L24.3818 40.8935H22.9858L22.5782 39.592ZM31.8911 36.5937L31.4742 37.9106L30.1103 37.9032L31.2052 38.7057L30.8286 40.0741L31.9194 39.2546L33.0534 40.0642L32.6501 38.7611L33.7027 37.9007L32.3025 37.8934L31.8911 36.5937ZM38.3632 30.0097L37.9414 31.3281L36.5759 31.3204L37.6695 32.1224L37.2994 33.4848L38.385 32.6743L39.5224 33.4725L39.1194 32.1731L40.1668 31.318L38.7622 31.3069L38.3632 30.0097ZM41.3288 20.729L40.9085 22.0555L39.5501 22.0463L40.648 22.8488L40.2662 24.2144L41.3515 23.3946L42.4922 24.198L42.0855 22.8971L43.1336 22.0383L41.7336 22.0346L41.3288 20.729ZM38.6803 11.2499L38.2594 12.5794L36.8986 12.5677L37.9971 13.3681L37.6163 14.7398L38.7062 13.9216L39.8426 14.7259L39.4337 13.4176L40.4891 12.5631L39.088 12.5538L38.6803 11.2499ZM31.868 4.57782L31.4447 5.8969L30.0848 5.8892L31.1768 6.69573L30.8027 8.06191L31.8911 7.23783L33.0266 8.04621L32.623 6.7456L33.6704 5.8892L32.2634 5.87874L31.868 4.57782Z" fill="#FD082A"/>
<path d="M22.5037 10.5732H14.7068C14.7068 10.5732 20.2678 27.1893 18.4642 28.3548L18.6151 29.0659L18.7641 30.095V31.6372L17.3294 33.829L16.958 35.4972V36.276L22.504 36.2815" fill="#FD082A"/>
<path d="M22.4968 10.5732H30.2962C30.2962 10.5732 24.7358 27.1893 26.5406 28.3548L26.3928 29.0659L26.2392 30.095V31.6372L27.6733 33.829L28.0409 35.4972V36.276L22.4968 36.2815" fill="#B5191A"/>
<path d="M18.7912 13.7166H17.8198V14.1217H18.713V14.5514H17.8198V15.4808H17.2758V13.2973H18.7912V13.7166ZM20.1157 14.6401L19.8629 13.8683L19.6095 14.6401H20.1157ZM20.9538 15.4799H20.3925L20.2478 15.0356H19.4811L19.326 15.4808H18.7801L19.5544 13.2973H20.1837L20.9538 15.4799ZM22.9135 15.5319C22.7638 15.5329 22.615 15.508 22.4738 15.4583C22.345 15.4138 22.2283 15.3401 22.1327 15.2431C22.0387 15.1397 21.9652 15.0195 21.9159 14.8888C21.8626 14.7287 21.8375 14.5606 21.842 14.392C21.842 14.2202 21.862 14.058 21.9159 13.9194C21.9564 13.7801 22.0309 13.6529 22.1327 13.5494C22.226 13.4507 22.3398 13.3737 22.4661 13.3238C22.609 13.2696 22.7606 13.2422 22.9135 13.2428C22.9991 13.2428 23.0856 13.2514 23.1505 13.2588C23.2229 13.2721 23.2949 13.2878 23.3507 13.3047C23.4098 13.3198 23.4729 13.3342 23.5228 13.3616C23.5714 13.3847 23.6173 13.4038 23.6558 13.4247V13.961H23.5942C23.568 13.9361 23.5326 13.909 23.4944 13.8742C23.4556 13.848 23.4098 13.8114 23.3599 13.7812C23.3088 13.7535 23.2484 13.7163 23.1881 13.7006C23.1268 13.6797 23.0621 13.6708 22.9975 13.6741C22.9232 13.6722 22.8492 13.6836 22.7789 13.7076C22.7079 13.7351 22.6432 13.7767 22.5886 13.8299C22.5257 13.8942 22.4786 13.9723 22.451 14.058C22.4134 14.1655 22.3956 14.279 22.3987 14.3929C22.3987 14.5293 22.4159 14.6499 22.4562 14.7407C22.4889 14.8325 22.5369 14.9079 22.5973 14.9571C22.7074 15.0548 22.8497 15.1084 22.9969 15.108C23.0648 15.1081 23.1324 15.0975 23.197 15.0766C23.2584 15.0573 23.3167 15.029 23.3697 14.9925C23.419 14.9636 23.4584 14.9347 23.5018 14.8987C23.5455 14.8685 23.5714 14.8442 23.6004 14.8205H23.6558V15.349C23.6034 15.3724 23.5548 15.3903 23.5018 15.41C23.4556 15.4361 23.4045 15.4558 23.3534 15.4755C23.2851 15.4903 23.2161 15.5082 23.1573 15.5196C23.0765 15.528 22.9953 15.5323 22.9141 15.5325M25.7528 14.693C25.7528 14.9602 25.6721 15.1723 25.5055 15.3152C25.3578 15.4583 25.1238 15.5319 24.8103 15.5319C24.5105 15.5319 24.2737 15.4583 24.1161 15.3152C23.9612 15.1723 23.8778 14.9636 23.8778 14.6939V13.2973H24.4212V14.669C24.4212 14.8171 24.4553 14.9307 24.5117 15.0036C24.5733 15.0809 24.6727 15.1212 24.8103 15.1212C24.9489 15.1212 25.0505 15.0812 25.1084 15.0076C25.1721 14.9421 25.2029 14.8266 25.2029 14.669V13.2976H25.7531L25.7528 14.693ZM27.2848 13.9949C27.2866 13.9415 27.2689 13.8893 27.2349 13.848C27.2093 13.8047 27.1695 13.7716 27.1223 13.7541C27.0724 13.7275 27.0171 13.7129 26.9606 13.7113C26.9067 13.7076 26.8375 13.7076 26.7482 13.7076H26.6543V14.3547H26.8076C26.8975 14.3547 26.9708 14.3479 27.0348 14.3393C27.09 14.3302 27.1414 14.3052 27.1826 14.2673C27.2191 14.2416 27.2453 14.2037 27.2565 14.1605C27.2778 14.108 27.2874 14.0515 27.2848 13.9949ZM27.8473 13.9856C27.8473 14.081 27.831 14.1802 27.7975 14.2741C27.7637 14.3607 27.7172 14.4418 27.6595 14.5148C27.5769 14.5937 27.481 14.6575 27.3763 14.7032C27.2545 14.7516 27.124 14.7744 26.9929 14.77H26.6543V15.4808H26.1161V13.2976H27.0019C27.1373 13.2976 27.2451 13.3038 27.3439 13.3284C27.4372 13.3546 27.5145 13.3906 27.5875 13.4423C27.6694 13.4938 27.7358 13.5664 27.7799 13.6525C27.8264 13.7571 27.8495 13.8706 27.8476 13.985" fill="white"/>
<path d="M15.3465 12.3052C15.3465 12.3052 15.1464 12.5822 15.558 12.8307H22.5304V12.3058L15.3465 12.3052Z" fill="#FD082A"/>
<path d="M29.7809 12.1758H15.2247C15.2247 12.1758 15.0646 12.3254 15.1018 12.5677C15.1181 12.7028 15.1893 12.8681 15.4667 12.9626H29.5349C29.8157 12.8681 29.8859 12.7028 29.9105 12.5677C29.9184 12.4969 29.911 12.4252 29.8887 12.3576C29.8664 12.29 29.8297 12.2279 29.7812 12.1758" fill="#B5191A"/>
<path d="M29.7389 12.3052H15.2723C15.2723 12.3052 15.1892 12.42 15.2107 12.5616C15.2252 12.6555 15.2483 12.7272 15.4416 12.8451H29.5668C29.7617 12.7272 29.7808 12.6555 29.7953 12.5619C29.8116 12.42 29.7389 12.3058 29.7389 12.3058" fill="#FD082A"/>
<path d="M28.5995 16.033L22.5637 16.0238H22.4418L16.4103 16.033C16.4103 16.033 16.2761 16.1836 16.2976 16.4237C16.3139 16.5576 16.4106 16.7201 16.6437 16.8146H28.3705C28.6081 16.7201 28.6928 16.5576 28.7027 16.4237C28.7288 16.1836 28.5989 16.033 28.5989 16.033" fill="#B5191A"/>
<path d="M28.5647 16.1639L22.5283 16.1547H22.3565L16.4426 16.1639C16.4426 16.1639 16.3823 16.2778 16.398 16.4086C16.4103 16.5096 16.4583 16.5856 16.6227 16.6992H28.3954C28.5583 16.5853 28.5986 16.5096 28.6134 16.4086C28.62 16.3241 28.6032 16.2394 28.5647 16.1639Z" fill="#FD082A"/>
<path d="M26.5505 28.3538L22.5455 28.3446H22.4621L18.4648 28.3538C18.4648 28.3538 18.3743 28.4893 18.3927 28.7038C18.3998 28.8304 18.4648 28.9821 18.623 29.0652H26.3929C26.553 28.9821 26.6068 28.8304 26.6161 28.7045C26.6324 28.489 26.5505 28.3538 26.5505 28.3538Z" fill="#B5191A"/>
<path d="M26.5262 28.4656H18.4873C18.4873 28.4656 18.4427 28.5702 18.4565 28.698C18.4642 28.7863 18.4965 28.8421 18.6028 28.9556H26.416C26.5157 28.8424 26.5438 28.7863 26.5536 28.698C26.5622 28.5699 26.5262 28.4656 26.5262 28.4656Z" fill="#FD082A"/>
<path d="M26.2315 30.6943H18.7641C18.3029 31.1591 18.7641 31.6372 18.7641 31.6372L22.233 31.6427H22.7638L26.2392 31.6353C26.2392 31.6353 26.6967 31.1582 26.2315 30.6927" fill="#B5191A"/>
<path d="M26.2393 30.8186H18.7607C18.5021 31.1514 18.7792 31.5306 18.7792 31.5306L22.4286 31.5232L26.2171 31.5306C26.2171 31.5306 26.4942 31.1514 26.2387 30.8186" fill="#FD082A"/>
</g>
</svg>
