<svg width="45" height="45" viewBox="0 0 45 45" fill="none" xmlns="http://www.w3.org/2000/svg">
<mask id="mask0_114_172" style="mask-type:alpha" maskUnits="userSpaceOnUse" x="0" y="0" width="45" height="45">
<rect width="45" height="45" fill="#D9D9D9"/>
</mask>
<g mask="url(#mask0_114_172)">
<path d="M28.4723 19.6678L36 2.25M18.465 20.0535L9.75 2.25M25.4233 18.849L17.4938 2.25M28.65 2.25L26.55 7.40625M11.7692 31.125C11.7692 34.4071 13.0457 37.5547 15.3177 39.8754C17.5898 42.1962 20.6714 43.5 23.8846 43.5C27.0978 43.5 30.1794 42.1962 32.4515 39.8754C34.7236 37.5547 36 34.4071 36 31.125C36 27.8429 34.7236 24.6953 32.4515 22.3746C30.1794 20.0538 27.0978 18.75 23.8846 18.75C20.6714 18.75 17.5898 20.0538 15.3177 22.3746C13.0457 24.6953 11.7692 27.8429 11.7692 31.125Z" stroke="#FD082A" stroke-width="3" stroke-linecap="round" stroke-linejoin="round"/>
</g>
</svg>
