<svg width="45" height="45" viewBox="0 0 45 45" fill="none" xmlns="http://www.w3.org/2000/svg">
<mask id="mask0_114_177" style="mask-type:alpha" maskUnits="userSpaceOnUse" x="0" y="0" width="45" height="45">
<rect width="45" height="45" fill="#D9D9D9"/>
</mask>
<g mask="url(#mask0_114_177)">
<path d="M9.28706 1.39564H35.6342V14.8147L37.0299 15.9194V0H7.89142V15.9194L9.28706 14.8147V1.39564ZM35.6342 43.6041H9.28706V30.2434L7.88501 29.1515V45H37.0299V29.1515L35.6342 30.2434V43.6041Z" fill="#B5191A"/>
<path d="M11.3222 3.43057H33.599V13.2124L34.3873 13.8327V2.64246H10.5338V13.8327L11.3222 13.2124V3.43057ZM33.599 41.5691H11.3222V31.8391L10.5338 31.2187V42.3573H34.3873V31.2187L33.599 31.8391V41.5691Z" fill="#FD082A"/>
<path d="M22.4607 20.7782L20.6063 10.2147L12.9568 12.8508L21.2653 8.56702L22.4607 16.2749L23.6558 8.56702L31.9646 12.8508L24.3151 10.2147L22.4607 20.7782Z" fill="#B5191A"/>
<path d="M22.4607 13.1606L21.8596 7.11344L15.9999 10.4472L22.4607 5.34949L28.9213 10.4472L23.0549 7.11344L22.4607 13.1606Z" fill="#B5191A"/>
<path d="M26.2466 12.8571L23.4427 19.4211L25.2195 11.4873L26.2466 12.8571ZM19.7019 11.4873L21.4785 19.4211L18.6682 12.8571L19.7019 11.4873ZM35.04 22.8843L36.5583 17.8641L34.1353 14.5562L37.9214 17.5476L36.3127 22.8779L37.831 27.5942L34.6263 30.114L36.4676 27.3294L35.04 22.8843Z" fill="#B5191A"/>
<path d="M27.8038 23.388L33.6443 25.3523L32.8821 22.8584L34.4908 17.8318L34.0644 16.1196L35.4016 18.1031L33.89 22.7938L35.2661 27.1872L33.444 30.353L34.0126 26.9029L27.8038 23.388Z" fill="#B5191A"/>
<path d="M28.605 22.7357L30.7562 22.6195L33.2955 18.6782L31.7577 22.9878L32.0227 23.8468L28.605 22.7357ZM30.8207 19.3113L26.6474 19.8476L25.5942 23.5948L25.9494 18.7168L33.5603 16.4363L31.1698 17.9159L30.8207 19.3113ZM7 17.5476L10.7858 14.5563L8.36312 17.8642L9.88145 22.8843L8.45354 27.3294L10.2948 30.114L7.09017 27.5942L8.6085 22.8715L7 17.5476Z" fill="#B5191A"/>
<path d="M9.64875 27.1873L11.0316 22.7939L9.51965 18.1032L10.8572 16.12L10.4307 17.832L12.0394 22.8585L11.277 25.3524L17.1177 23.3882L10.9086 26.903L11.4772 30.3531L9.64875 27.1873Z" fill="#B5191A"/>
<path d="M14.165 22.6195L16.3165 22.7358L12.8987 23.8468L13.1635 22.9878L11.6257 18.6782L14.165 22.6195ZM18.9654 18.7171L19.3206 23.5884L18.2741 19.8477L14.1004 19.3113L13.7449 17.9159L11.3545 16.4363L18.9654 18.7171ZM25.1224 36.1095L27.4161 34.3458L27.0219 36.0708L22.4607 39.6566L17.8993 36.0708L17.5052 34.3458L19.7988 36.1098L25.1224 36.1095Z" fill="#B5191A"/>
<path d="M25.8203 26.3927L22.6093 29.1253L28.2041 31.8649L30.8727 30.0172L31.2344 27.3811L28.4562 24.6479L32.669 27.4134L32.139 30.9666L28.7535 33.5576L28.1137 35.0112L27.4872 33.299L22.4607 31.2445L17.4342 33.2992L16.8074 35.0114L16.1679 33.5576L12.7824 30.9666L12.2527 27.4134L16.465 24.6479L13.6804 27.3811L14.042 30.0172L16.7104 31.8649L22.3055 29.1253L19.0944 26.3924L18.1447 24.816L19.7857 25.798H25.1354L26.7762 24.816L25.8203 26.3927Z" fill="#B5191A"/>
</g>
</svg>
