<svg width="45" height="45" viewBox="0 0 45 45" fill="none" xmlns="http://www.w3.org/2000/svg">
<mask id="mask0_114_176" style="mask-type:alpha" maskUnits="userSpaceOnUse" x="0" y="0" width="45" height="45">
<rect width="45" height="45" fill="#D9D9D9"/>
</mask>
<g mask="url(#mask0_114_176)">
<path fill-rule="evenodd" clip-rule="evenodd" d="M7.5 1.25C7.5 0.918479 7.6317 0.600537 7.86612 0.366117C8.10054 0.131696 8.41848 0 8.75 0H36.25C36.5815 0 36.8995 0.131696 37.1339 0.366117C37.3683 0.600537 37.5 0.918479 37.5 1.25V2.5H43.75C44.0815 2.5 44.3995 2.6317 44.6339 2.86612C44.8683 3.10054 45 3.41848 45 3.75V11.25C45 12.9076 44.3415 14.4973 43.1694 15.6694C41.9973 16.8415 40.4076 17.5 38.75 17.5H36.6463C34.72 22.95 29.7337 26.955 23.75 27.4487V35H32.5C32.8315 35 33.1495 35.1317 33.3839 35.3661C33.6183 35.6005 33.75 35.9185 33.75 36.25V43.75C33.75 44.0815 33.6183 44.3995 33.3839 44.6339C33.1495 44.8683 32.8315 45 32.5 45H12.5C12.1685 45 11.8505 44.8683 11.6161 44.6339C11.3817 44.3995 11.25 44.0815 11.25 43.75V36.25C11.25 35.9185 11.3817 35.6005 11.6161 35.3661C11.8505 35.1317 12.1685 35 12.5 35H21.25V27.4487C15.2675 26.955 10.28 22.95 8.35375 17.5H6.25C4.5924 17.5 3.00269 16.8415 1.83058 15.6694C0.65848 14.4973 0 12.9076 0 11.25V3.75C0 3.41848 0.131696 3.10054 0.366117 2.86612C0.600537 2.6317 0.918479 2.5 1.25 2.5H7.5V1.25ZM35 12.5V2.5H10V12.5C10 19.4037 15.5963 25 22.5 25C29.4037 25 35 19.4037 35 12.5ZM37.5 5V15H38.75C39.7446 15 40.6984 14.6049 41.4016 13.9017C42.1049 13.1984 42.5 12.2446 42.5 11.25V5H37.5ZM2.5 5H7.5V15H6.25C5.25544 15 4.30161 14.6049 3.59835 13.9017C2.89509 13.1984 2.5 12.2446 2.5 11.25V5ZM13.75 37.5V42.5H31.25V37.5H13.75Z" fill="#FD082A"/>
</g>
</svg>
