<svg xmlns="http://www.w3.org/2000/svg" width="665.58105" height="166.60829" viewBox="0 0 665.58106 166.60829"><path d="M178.163-16.044h-11.95S156.653-5.89 154.877-3.992v-12.052h-12.976c-.405 0-.297.323 0 .58.944.783 2.381 2.261 2.381 3.967v23.603c0 1.515 1.092 2.67 2.743 2.67h7.852V2.732c1.776 1.9 11.334 12.044 11.334 12.044h11.951S164.756.123 164.056-.634c.7-.762 14.107-15.41 14.107-15.41" style="fill:#fff;fill-opacity:1;fill-rule:nonzero;stroke:none;stroke-width:.0864284" transform="matrix(2.04186 0 0 2.04186 -128.88 90.102)"/><path d="M268.746-.65c0 11.22 7.45 17.088 14.818 17.088 4.446 0 9.2-1.477 12.42-3.858l.25-.18V-2.181h-9.747v5.95h3.672v4.028c-1.657 1.153-3.661 1.79-5.823 1.79-4.455 0-8.946-3.49-8.946-10.15 0-6.229 3.342-10.428 8.333-10.428 4.415 0 8.044 2.354 9.407 3.368l.482.368 2.68-6.562-.458-.29c-.238-.142-6.013-3.553-11.73-3.553-7.63 0-15.358 5.84-15.358 17.01" style="fill:#fff;fill-opacity:1;fill-rule:nonzero;stroke:none;stroke-width:.0865818" transform="matrix(2.04186 0 0 2.04186 -128.88 90.102)"/><path d="M195.764 8.2v-24.712h-9.655c-.41 0-.308.325-.004.582.948.785 2.418 2.267 2.418 3.977v24.25c0 1.3.722 2.089 2.172 2.089h20.155V8.2h-15.086" style="fill:#fff;fill-opacity:1;fill-rule:nonzero;stroke:none;stroke-width:.0871592" transform="matrix(2.04186 0 0 2.04186 -128.88 90.102)"/><path d="M221.38 9.016V2.732h12.07v-6.986h-12.07v-5.919h13.57v-6.407h-23.122c-.397 0-.289.336-.002.602.941.813 2.389 2.348 2.389 4.12v25.117c0 1.53.605 2.163 2.16 2.163h19.47V9.016H221.38" style="fill:#fff;fill-opacity:1;fill-rule:nonzero;stroke:none;stroke-width:.0882243" transform="matrix(2.04186 0 0 2.04186 -128.88 90.102)"/><path d="M320.22-16.725V1.266c0 4.94-.885 8.037-6.073 8.037-5.09 0-6.725-2.579-6.725-7.869v-18.16h-9.343c-.406 0-.304.336 0 .602.924.811 2.345 2.344 2.345 4.112v14.51c0 9.135 3.977 13.745 13.678 13.745 9.675 0 13.107-4.267 13.107-13.745v-19.223h-6.99" style="fill:#fff;fill-opacity:1;fill-rule:nonzero;stroke:none;stroke-width:.0875053" transform="matrix(2.04186 0 0 2.04186 -128.88 90.102)"/><path d="M249.59 2.387a5710.34 5710.34 0 0 1 3.666-11.462h1.022c.232.694 3.245 10.086 3.693 11.462h-8.381zm9.104-18.402H246.46c-.392 0-.283.33 0 .592.929.793 1.255 2.569.667 4.297l-9.283 26.548h7.548l2.08-6.46h12.576c.235.705 2.085 6.46 2.085 6.46h7.563l-11.002-31.437" style="fill:#fff;fill-opacity:1;fill-rule:nonzero;stroke:none;stroke-width:.087142" transform="matrix(2.04186 0 0 2.04186 -128.88 90.102)"/><path d="M338.93 8.156V2.1h12.257v-6.735H338.93v-5.706h13.775v-6.176H329.23c-.41 0-.305.324 0 .581.956.783 2.424 2.263 2.424 3.97v24.213c0 1.475.616 2.086 2.19 2.086h19.775V8.156H338.93" style="fill:#fff;fill-opacity:1;fill-rule:nonzero;stroke:none;stroke-width:.0872932" transform="matrix(2.04186 0 0 2.04186 -128.88 90.102)"/><path d="M63.41-3.816c.283.193 10.865 7.519 11.117 7.693.253.174.551.364.77-.13 2.76-6.234 6.026-11.611 9.16-16.171 3.134-4.56 9.017-11.398 15.653-16.28.46-.338.457-.228.457-.893 0-.664.209-13.5.209-14.023 0-.398-.238-.716-.594-.338-4.888 5.186-7.06 8.215-10.337 13.446-3.276 5.23-6.972 12.291-7.125 12.574-.154.284-.308.414-.924.741-.616.327-4.08 2.114-8.434 5.034-4.355 2.92-9.281 7.05-9.688 7.366-.407.316-.869.567-.264.981" style="fill:#ed202a;fill-opacity:1;fill-rule:nonzero;stroke:none;stroke-width:.0284602" transform="matrix(2.04186 0 0 2.04186 -128.88 90.102)"/><path d="M144.593-36.215c-9.124-.118-20.223 1.238-31.708 6.538a72.168 72.168 0 0 0-10.864 6.223c2.751-1.394 6.645-3.277 9.37-4.22 4.641-1.604 9.812-2.368 10.833-2.484 1.021-.117.332.31-.172.608-.504.297-6.828 4.607-11.025 8.334-4.196 3.728-7.597 6.814-13.053 13.719-.295.373-.565.69-.213 1.578 4.475 11.299 8.493 17.608 13.346 23.956.533.697.278.718-.22.466-.497-.253-.689-.337-4.216-2.407-3.527-2.072-11.8-7.377-16.825-12.334-.653-.644-.865-.667-1.578-.039-2.997 2.64-7.664 7.015-10.926 11.518-.577.798-.556.155-.53-.388.027-.544.133-2.692.345-4.581.317-2.771.74-4.86 1.021-6.074a60.324 60.324 0 0 0-2.885 7.27c-.929 2.88-2.512 8.584-2.512 16.6 0 2.672.004 4.203.153 4.806.103.42.396.316.794-.358a83.783 83.783 0 0 1 4.26-6.411c2.881-3.94 6.85-8.743 10.315-11.563.403-.329.696-.736 1.357-.07.753.758 4.19 3.759 14.05 9.765 9.861 6.006 21.853 10.665 31.01 13.03 2.478.639 1.756-.386 1.067-1.017-6.287-5.747-14.92-17.234-18.86-23.517-6.384-10.18-8.347-16.091-8.613-16.706-.266-.615-.131-.987.272-1.508.44-.567 3.762-4.877 9.158-10.056 5.397-5.178 14.31-12.06 20.635-15.961 3.98-2.457 4.97-3.275 6.129-3.949.57-.332.762-.387.762-.568 0-.208-.325-.196-.677-.2" style="fill:#fff;fill-opacity:1;fill-rule:nonzero;stroke:none;stroke-width:.0311156" transform="matrix(2.04186 0 0 2.04186 -128.88 90.102)"/><path d="m387.372 15.387 1.714-5.818h-10.744L384.63-.569c1.714-2.78 2.971-4.79 2.971-7.87 0-5.519-4.229-8.855-10.744-8.855-6.058 0-10.801 3.764-10.801 10.052l8.572.898c0-3.507.972-5.133 2.458-5.133 1.486 0 2.343 1.455 1.886 3.807-.286 1.54-.857 2.738-2 4.492l-11.773 18.394.114.17z" style="font-size:40px;font-family:&quot;K League Basic&quot;;fill:#fff;fill-opacity:1;stroke-width:1.23609" transform="matrix(2.04186 0 0 2.04186 -128.88 90.102)"/></svg>