<svg width="33" height="30" viewBox="0 0 33 30" fill="none" xmlns="http://www.w3.org/2000/svg">
<path d="M16.2549 0C25.2322 3.1547e-05 32.5098 5.73825 32.5098 12.8164C32.5097 19.8947 25.2321 25.6328 16.2549 25.6328C15.2697 25.6328 14.305 25.5633 13.3682 25.4307C12.4302 26.0916 7.01042 29.8983 6.49902 29.9697C6.48956 29.9733 6.28549 30.0489 6.11133 29.9463C5.93301 29.8413 5.96582 29.5654 5.96582 29.5654C6.02075 29.1952 7.37027 24.5331 7.61914 23.6748C3.04261 21.4074 6.16729e-05 17.3925 0 12.8164C0 5.73823 7.27754 0 16.2549 0ZM4.86719 8.9873C4.35985 8.9873 3.94629 9.39903 3.94629 9.90527C3.94633 10.4115 4.35972 10.8232 4.86719 10.8232H6.33008V16.3945C6.33008 16.8884 6.75049 17.2899 7.26758 17.29C7.78476 17.29 8.20605 16.8884 8.20605 16.3945V10.8232H9.66895C10.1762 10.8232 10.5888 10.4114 10.5889 9.90527C10.5889 9.39907 10.1764 8.98737 9.66895 8.9873H4.86719ZM12.8154 8.9873C12.2047 9.00127 11.7244 9.46407 11.5664 9.91309L9.32324 15.8174C9.03872 16.7015 9.28743 17.0292 9.5459 17.1484C9.73289 17.2339 9.93602 17.2785 10.1416 17.2783C10.5327 17.2783 10.832 17.1192 10.9219 16.8643L11.3867 15.6484H14.2461L14.7109 16.8643C14.8014 17.1193 15.1004 17.2783 15.4912 17.2783C15.6968 17.2784 15.8999 17.2337 16.0869 17.1484C16.3454 17.0295 16.5939 16.7017 16.3086 15.8154L14.0664 9.91406C13.9081 9.46409 13.428 9.00106 12.8154 8.9873ZM23.0273 8.9873C22.5104 8.98754 22.0898 9.40776 22.0898 9.9248V16.3398C22.0898 16.8569 22.5104 17.2781 23.0273 17.2783C23.276 17.278 23.5146 17.1787 23.6904 17.0029C23.8663 16.8271 23.9655 16.5885 23.9658 16.3398V14.2939L24.291 13.9688L26.4902 16.8818C26.5773 16.9981 26.6912 17.0925 26.8213 17.1572C26.9512 17.2218 27.0942 17.2555 27.2393 17.2549C27.443 17.2554 27.6415 17.1887 27.8037 17.0654C27.9022 16.9916 27.9854 16.8991 28.0479 16.793C28.1103 16.6868 28.1513 16.5693 28.168 16.4473C28.1854 16.3254 28.1783 16.2012 28.1475 16.082C28.1166 15.9628 28.0618 15.851 27.9873 15.7529L25.6787 12.6943L27.8164 10.5576C27.9632 10.4106 28.037 10.2074 28.0234 9.98633C28.0099 9.7672 27.9112 9.55658 27.7471 9.39258C27.571 9.21671 27.3365 9.11536 27.1025 9.11523C26.9019 9.11523 26.7166 9.18965 26.582 9.32422L23.9658 11.9404V9.9248C23.9658 9.40762 23.5445 8.9873 23.0273 8.9873ZM17.876 8.9873C17.3484 8.98753 16.9189 9.40776 16.9189 9.9248V16.2939C16.919 16.7676 17.322 17.1531 17.8174 17.1533H20.8262C21.3217 17.1533 21.7255 16.7678 21.7256 16.2939C21.7256 15.8201 21.3218 15.4346 20.8262 15.4346H18.834V9.9248C18.834 9.40762 18.4038 8.9873 17.876 8.9873ZM13.7529 13.9873H11.8799L12.8164 11.3262L13.7529 13.9873Z" fill="#777777"/>
</svg>
