<?xml version="1.0" encoding="utf-8"?>
<!-- Generator: Adobe Illustrator 13.0.0, SVG Export Plug-In . SVG Version: 6.00 Build 14948)  -->
<!DOCTYPE svg PUBLIC "-//W3C//DTD SVG 1.0//EN" "http://www.w3.org/TR/2001/REC-SVG-20010904/DTD/svg10.dtd">
<svg version="1.0" id="Ebene_1" xmlns="http://www.w3.org/2000/svg" xmlns:xlink="http://www.w3.org/1999/xlink" x="0px" y="0px"
	 width="239.564px" height="283px" viewBox="0 0 239.564 283" enable-background="new 0 0 239.564 283" xml:space="preserve">
<path fill="#C1980C" d="M0,241.717v3.071v1.065h19.129v0.071C43.944,256.2,50.185,273.126,52.809,283h133.945
	c2.625-9.874,8.867-26.8,33.682-37.077v-0.071h19.127v-1.065v-3.071H0z"/>
<path fill="#C1980C" d="M220.436,84.71V54.073c-24.815-10.275-31.056-27.203-33.682-37.079h-40.559
	c-0.275-0.752-0.485-1.519-0.52-2.33c-0.054-1.219,0.2-4.716,3.112-6.516c-3.94,0.681-5.586,3.271-6.216,5.963
	c-0.129,0.545-0.216,1.096-0.271,1.635c-0.046,0.436-0.04,0.835-0.048,1.249h-1.854c-0.433-0.386-0.851-0.771-1.24-1.155
	c-0.593-0.583-1.134-1.161-1.626-1.729C132.656,8.478,132.527,3.547,134.428,0c-0.017,0.017-0.033,0.039-0.046,0.056
	c-1.6,1.545-2.629,3.651-3.179,5.7c-0.331,1.231-0.487,2.444-0.487,3.5c0,2.951,0.726,5.47,1.86,7.739h-6.164
	c-0.399-0.852-0.633-1.736-0.633-2.671c0-2.367,2.218-4.623,2.729-5.134c-4.517,2.287-5.247,5.615-5.276,7.806h-1.032
	c0.204-1.34,0.626-2.675,1.335-3.982c-0.859,0.774-2.065,2.438-2.909,3.982h-1.702c-0.844-1.544-2.052-3.208-2.908-3.982
	c0.711,1.307,1.132,2.642,1.335,3.982h-1.035c-0.029-2.191-0.752-5.519-5.274-7.806c0.51,0.512,2.732,2.767,2.732,5.134
	c0,0.936-0.232,1.819-0.632,2.671h-6.163c1.135-2.269,1.86-4.788,1.86-7.739c0-1.055-0.158-2.268-0.491-3.5
	c-0.545-2.031-1.561-4.117-3.131-5.657c-0.034-0.031-0.057-0.068-0.092-0.1c1.903,3.545,1.762,8.479-3.116,14.111
	c-0.701,0.805-1.496,1.627-2.396,2.461c-0.154,0.141-0.302,0.281-0.453,0.422h-1.843c-0.019-0.784-0.075-1.602-0.236-2.438
	c-0.027-0.148-0.061-0.298-0.096-0.445c-0.628-2.69-2.273-5.282-6.212-5.963c2.915,1.8,3.166,5.297,3.108,6.516
	c-0.036,0.811-0.245,1.578-0.52,2.33H52.809c-2.624,9.875-8.865,26.804-33.68,37.079V84.71C11.615,78.134,5.204,70.934,0,63.25v7.29
	c4.75,6.231,10.277,12.118,16.556,17.579c1.365,1.188,2.761,2.364,4.196,3.51c4.889,3.907,10.077,7.485,15.528,10.729
	c0.108,0.063,0.208,0.127,0.316,0.189c1.02,0.608,2.072,1.172,3.108,1.754c19.082,10.659,41.092,17.304,64.415,19.364
	c4.41,3.182,9.811,5.078,15.665,5.078c5.854,0,11.253-1.896,15.663-5.078c23.321-2.062,45.332-8.705,64.413-19.364
	c1.036-0.582,2.089-1.146,3.108-1.754c0.108-0.062,0.208-0.126,0.316-0.189c5.451-3.244,10.639-6.822,15.528-10.729
	c1.436-1.146,2.832-2.322,4.196-3.51c6.279-5.461,11.806-11.348,16.556-17.579v-7.29C234.359,70.934,227.95,78.134,220.436,84.71z"
	/>
<path fill="#FFFFFF" d="M223.009,88.119c-1.365,1.188-2.761,2.364-4.196,3.51c-4.889,3.907-10.077,7.485-15.528,10.729
	c-0.108,0.063-0.208,0.127-0.316,0.189c-1.019,0.608-2.072,1.172-3.108,1.754c-19.081,10.659-41.092,17.303-64.413,19.364
	c-4.41,3.182-9.809,5.078-15.663,5.078c-5.854,0-11.255-1.896-15.665-5.078c-23.323-2.061-45.333-8.705-64.415-19.364
	c-1.036-0.582-2.089-1.146-3.108-1.754c-0.108-0.062-0.208-0.126-0.316-0.189c-5.451-3.244-10.639-6.822-15.528-10.729
	c-1.436-1.146-2.832-2.322-4.196-3.51C10.277,82.658,4.75,76.771,0,70.54v171.177h239.563V70.543
	C234.813,76.771,229.288,82.659,223.009,88.119z"/>
<path fill="#C1980C" d="M20.317,223.519h1.54v9.943c0,0.512,0,0.828,0.125,1.21h-2.705c0.15-0.416,0.204-0.699,0.204-1.21v-7.402
	h-1.244v-1.148C19.2,224.774,19.734,224.708,20.317,223.519z"/>
<path fill="#C1980C" d="M42.633,230.853h2.34v1.173c0,0.932-0.029,1.577,0.287,1.751c0.104,0.059,0.32,0.1,0.568-0.025
	c0.339-0.167,0.321-0.911,0.321-1.573v-2.38c-0.668,0.241-2.354,0.412-3.052-0.079c-0.416-0.274-0.464-0.795-0.464-1.236v-2.921
	c0-0.865,0.035-1.448,0.281-1.813c0.362-0.52,1.864-0.445,2.271-0.445h0.799c0.471,0,1.813-0.033,2.218,0.429
	c0.287,0.319,0.242,0.811,0.242,1.705v7.21c0,0.433,0.06,1.302-0.414,1.781c-0.505,0.5-1.88,0.399-2.428,0.399h-0.724
	c-0.528,0-1.571-0.033-1.964-0.449c-0.312-0.32-0.281-0.886-0.281-1.772V230.853z M46.102,228.057v-2.493
	c0-0.728,0-0.986-0.254-1.161c-0.189-0.117-0.433-0.075-0.556-0.017c-0.272,0.108-0.339,0.433-0.339,1.152v1.814
	c0,0.233,0,0.903,0.021,0.99c0.075,0.524,0.391,0.628,0.716,0.554C45.922,228.839,46.102,228.61,46.102,228.057z"/>
<path fill="#C1980C" d="M72.48,228.502c0.857,0.337,0.997,0.537,0.997,1.419v2.642c0,0.749,0.093,1.589-0.618,1.989
	c-0.729,0.399-3.916,0.379-4.64-0.029c-0.628-0.399-0.565-1.365-0.565-2.018v-2.368c0-0.874-0.063-1.211,0.915-1.593
	c-0.882-0.212-0.93-0.625-0.93-1.452v-1.581c0-0.57-0.048-1.382,0.355-1.776c0.512-0.503,1.693-0.445,2.301-0.445h0.352
	c0.364,0,1.912-0.077,2.449,0.472c0.399,0.446,0.333,1.378,0.333,1.819v1.623C73.429,227.965,73.354,228.265,72.48,228.502z
	 M69.967,225.153v2.093c0,0.416-0.023,0.662,0.264,0.824c0.119,0.066,0.416,0.066,0.537,0c0.341-0.15,0.322-0.533,0.322-0.853
	v-2.093c0-0.304,0-0.545-0.302-0.687c-0.189-0.091-0.475-0.05-0.595,0.046C69.934,224.67,69.967,224.911,69.967,225.153z
	 M69.967,229.871v3.045c0,0.408-0.023,0.641,0.264,0.824c0.119,0.062,0.416,0.062,0.537,0c0.341-0.167,0.322-0.549,0.322-0.857
	v-3.037c0-0.308,0-0.554-0.302-0.691c-0.189-0.091-0.475-0.042-0.595,0.046C69.934,229.384,69.967,229.63,69.967,229.871z"/>
<path fill="#C1980C" d="M97.503,228.714c0.857,0.304,0.99,0.578,0.99,1.498v2.396c0,0.387,0.043,1.543-0.397,1.989
	c-0.364,0.333-0.822,0.308-1.799,0.308h-1.619c-0.801,0-1.457-0.034-1.756-0.375c-0.287-0.35-0.241-1.049-0.241-1.769v-2.396h2.347
	v1.66c0,0.845-0.05,1.469,0.316,1.681c0.096,0.071,0.281,0.112,0.495,0c0.304-0.166,0.271-0.791,0.271-1.581v-1.29
	c0-0.641,0.033-1.128-0.306-1.423c-0.137-0.104-0.439-0.121-0.99-0.121v-1.027c0.427,0,0.934,0.033,1.144-0.196
	c0.185-0.183,0.152-0.624,0.152-1.356v-1.348c0-0.274-0.063-0.516-0.331-0.695c-0.112-0.066-0.414-0.091-0.584,0
	c-0.441,0.225-0.397,0.545-0.397,1.015v1.731h-2.104v-3.897c0,0,2.351-0.089,2.613-0.089c1.119,0,2.361-0.106,2.885,0.521
	c0.36,0.424,0.302,1.082,0.302,1.806v1.307c0,0.645-0.017,0.995-0.383,1.36C97.948,228.594,97.716,228.685,97.503,228.714z"/>
<path fill="#C1980C" d="M142.2,232.671h2.045c0.811,0,1.073,0,1.7-0.075v2.076h-6.252v-1.993l2.155-2.559
	c0.93-1.082,1.373-1.589,1.515-2.459c0.073-0.474,0.121-2.03,0.011-2.48c-0.067-0.229-0.142-0.42-0.429-0.512
	c-0.167-0.066-0.393-0.033-0.551,0.071c-0.385,0.292-0.337,1.152-0.337,1.926v1.024h-2.151v-3.956
	c0.645-0.108,1.906-0.243,2.513-0.258c1.228-0.033,2.438-0.079,2.975,0.473c0.422,0.404,0.399,1.356,0.399,1.893v0.936
	c0,1.706-0.085,1.706-1.654,3.587L142.2,232.671z"/>
<path fill="#C1980C" d="M170.72,232.858c0,0.919-0.029,1.203-0.345,1.573c-0.345,0.412-0.874,0.475-2.571,0.475
	c-1.527,0-2.047-0.063-2.355-0.279c-0.593-0.445-0.547-1.103-0.547-1.769v-7.418c0-0.678-0.045-1.323,0.547-1.763
	c0.308-0.233,0.828-0.279,2.355-0.279c1.698,0,2.226,0.046,2.571,0.462c0.316,0.377,0.345,0.668,0.345,1.58V232.858z
	 M168.382,225.244c0-0.537-0.083-0.761-0.565-0.761c-0.5,0-0.612,0.225-0.612,0.761v7.827c0,0.516,0.112,0.766,0.612,0.766
	c0.482,0,0.565-0.25,0.565-0.766V225.244z"/>
<path fill="#C1980C" d="M195.741,232.858c0,0.919-0.031,1.203-0.36,1.573c-0.329,0.412-0.861,0.475-2.557,0.475
	c-1.533,0-2.051-0.063-2.353-0.279c-0.604-0.445-0.545-1.103-0.545-1.769v-7.418c0-0.678-0.059-1.323,0.545-1.763
	c0.302-0.233,0.82-0.279,2.353-0.279c1.695,0,2.228,0.046,2.557,0.462c0.329,0.377,0.36,0.668,0.36,1.58V232.858z M193.396,225.244
	c0-0.537-0.087-0.761-0.562-0.761c-0.501,0-0.616,0.225-0.616,0.761v7.827c0,0.516,0.114,0.766,0.616,0.766
	c0.474,0,0.562-0.25,0.562-0.766V225.244z"/>
<path fill="#C1980C" d="M217.725,223.519h2.613c-0.087,0.322-0.108,0.565-0.108,0.952v5.525h1.099v1.777h-1.132v1.98
	c0,0.295-0.013,0.57,0.077,0.919h-2.59c0.121-0.308,0.162-0.611,0.162-0.965v-1.935h-3.36v-1.777L217.725,223.519z M215.69,229.996
	h2.122v-4.123L215.69,229.996z"/>
<polygon fill="#C1980C" points="116.271,233.849 119.591,231.02 122.901,233.849 121.417,229.696 124.96,227.524 120.716,227.549 
	119.591,223.631 118.461,227.549 114.217,227.524 117.767,229.696 "/>
<path d="M239.563,214.206c0-3.038,0-6.172,0-9.649c-0.797,0.106-1.519,0.194-2.23,0.276l0.002,9.386
	C238.081,214.218,238.82,214.208,239.563,214.206z"/>
<path d="M225.657,156.603c0-15.66,0-30.855,0-44.451c0.002-4.279,0.337-6.312,1.03-10.601c-0.751,0.563-1.485,1.111-2.222,1.657
	l-0.015,0.106c-0.693,4.193-1.009,6.108-1.02,10.245c0,0,0,91.593,0,92.096c0.799-0.023,1.531-0.058,2.226-0.083
	C225.657,192.961,225.657,172.069,225.657,156.603z"/>
<path d="M48.041,122.858c-0.775-0.426-1.517-0.833-2.231-1.234v28.417c0.746,0.2,1.477,0.394,2.231,0.589
	C48.041,139.643,48.041,130.099,48.041,122.858z"/>
<path d="M24.913,117.892c-0.248-0.111-0.499-0.217-0.76-0.292c-0.65-0.199-1.15-0.177-1.542,0.064
	c-0.49,0.305-0.824,0.997-0.994,2.059v0.023l-0.011,0.018c-0.11,0.31-0.208,1.396-0.212,3.125v13.426
	c0.004,5.506,0.414,7.037,0.773,7.756c2.023,3.998,6.799,7.344,11.405,10.571c3.294,2.312,6.399,4.488,8.646,6.925
	c4.715,5.632,4.664,12.463,4.63,18.49v1.396v17.755c0,5.251,0.002,10.207-3.517,13.532c-1.68,1.428-4.168,2.18-7.132,2.586
	c3.979-0.292,7.377-1.012,9.446-2.752c3.532-3.326,3.427-8.316,3.418-13.722c0-3.597,0-13.428,0-17.188
	c0.013-6.375,0.455-13.591-4.561-19.499c-5.45-5.81-16.603-10.506-20.087-17.233c-0.449-0.888-0.789-2.701-0.798-7.723
	c0-4.615,0-8.898,0-13.172c0-1.741,0.117-2.798,0.232-3.125c0.256-1.564,0.855-2.242,1.656-2.379
	C25.336,118.323,25.136,118.108,24.913,117.892z"/>
<path d="M21.331,203.259c-0.107-0.9-0.111-2.916-0.111-4.643c0-6.837,0-20.158,0-27.714c-0.739-0.133-1.483-0.258-2.223-0.387
	v27.956c0,1.574,0,3.726,0.104,4.654c0.242,2.264,1.209,3.138,2.584,3.745c0.363,0.131,0.781,0.223,1.229,0.272
	c0.246-0.058,0.482-0.125,0.698-0.204C22.366,206.285,21.552,205.317,21.331,203.259z"/>
<path d="M72.897,155.838c-1.367,0.486-1.551,1.848-1.551,3.234c0,0.268,0.005,0.534,0.012,0.795l0.015,0.665c0,0,0,12.109,0,12.534
	c0.743,0.075,1.491,0.144,2.225,0.221c0-4.301,0-8.364,0-12.41c-0.011-1.687-0.322-3.974,1.481-4.792
	c-0.129-0.091-0.283-0.18-0.449-0.263C73.981,155.755,73.367,155.755,72.897,155.838z"/>
<path d="M73.598,201.192c0-4.897,0-16.065,0-21.166c-0.733-0.054-1.481-0.108-2.225-0.164c0,1.99,0,21.261,0,21.261l-0.015,1.999
	c-0.007,0.55-0.007,1.063-0.007,1.519c0,4.056,0.321,4.758,3.509,4.883c0.077-0.029,0.144-0.063,0.21-0.102
	C73.313,208.694,73.587,206.67,73.598,201.192z"/>
<path d="M95.669,199.796c0,7.447,0,9.698-1.06,11.357l-0.066,0.121c-0.586,0.987-1.553,2.629-4.862,3.684
	c-0.563,0.163-1.307,0.302-2.199,0.418c1.819-0.133,3.505-0.337,4.602-0.652c3.349-1.068,4.211-2.707,4.786-3.684
	c1.021-1.594,1.025-3.719,1.025-11.202c0-2.583,0-11.37,0-13.998c-0.744-0.023-1.483-0.044-2.226-0.063V199.796z"/>
<path d="M95.686,165.035l-0.017,1.688v15.02c0.743,0.027,1.482,0.052,2.226,0.079c0-5.178,0-10.09,0-14.945
	c0.006-5.19,0.461-8.698-2.733-11.523c-1.985-1.665-4.17-2.479-8.582-3.418c2.941,0.794,4.67,1.613,6.272,2.991
	C95.771,157.558,95.735,160.692,95.686,165.035z"/>
<path d="M143.363,162.359v42.777c0,3.551-0.012,7.566-5.756,9.74c-0.604,0.206-1.425,0.383-2.476,0.525
	c2.355-0.174,3.905-0.427,4.872-0.759c5.421-2.057,5.582-5.674,5.582-9.527c0-12.05,0-31.359,0-42.932
	c0-3.636-0.181-7.128-5.582-8.537c-0.88-0.198-2.245-0.292-4.254-0.307c0.762,0.052,1.373,0.14,1.845,0.247
	C143.351,155.136,143.359,158.977,143.363,162.359z"/>
<path d="M120.214,162.451v43.724c0.008,2.59,0.831,3.365,2.529,3.554c0.25-0.106,0.48-0.243,0.67-0.422
	c-0.647-0.555-0.965-1.52-0.976-3.132c0-12.355-0.008-32.092,0-43.728c0.01-1.58,0.329-2.509,0.976-3.053
	c-0.189-0.16-0.408-0.287-0.647-0.379C121.028,159.207,120.229,159.944,120.214,162.451z"/>
<path d="M172.179,205.07c0-13.477,0-34.797,0-48.279c0.004-3.534,0.117-6.139,0.687-8.388c-0.741,0.167-1.483,0.332-2.222,0.492
	l-0.015,0.065c-0.556,2.182-0.674,4.668-0.674,8.22v47.944c0.019,2.731,0.865,3.57,2.521,3.759c0.283-0.118,0.524-0.27,0.729-0.463
	C172.558,207.836,172.191,206.822,172.179,205.07z"/>
<path d="M195.542,214.52c0.728-0.006,1.454-0.006,2.195-0.006c-1.244-2.604-1.702-6.97-1.714-10.123c0-14.46,0-37.293,0-52.852
	c0.008-4.083,0.117-7.145,0.574-9.812c-0.745,0.244-1.487,0.489-2.224,0.727l-0.004,0.048c-0.47,2.673-0.568,5.776-0.568,9.617
	v52.345c0,3.134,0.451,7.396,1.689,9.948L195.542,214.52z"/>
<path fill="#C1980C" d="M117.63,132.193v1.491c-1.025-0.117-3.747-0.188-6.072-0.238v4.531c1.884,0.039,4.769,0.085,5.46,0.045
	v1.523c-0.691-0.069-3.576-0.154-5.46-0.193v7.714c0,0.384,0.068,0.813,0.245,1.325l-6.03-0.129c0.246-0.459,0.347-0.95,0.347-1.311
	V133.42c0-0.472-0.102-1.006-0.347-1.481L117.63,132.193z"/>
<path fill="#C1980C" d="M134.195,132.06v6.302l-4.658,0.077v-1.531c0-0.974,0.14-3.268-0.926-3.57
	c-0.339-0.106-0.99-0.121-1.5,0.061c-0.824,0.296-0.722,1.086-0.722,1.765v9.992c0,0.961-0.102,1.736,0.583,1.932
	c0.31,0.11,1.3,0.134,1.712-0.027c0.787-0.258,0.688-0.873,0.688-2.004v-3.271l4.823-0.077v3.966c0,0.846,0.058,1.673-0.859,2.182
	c-0.93,0.539-2.118,0.653-5.372,0.704l-1.471,0.025c-3.626,0.059-5.542-0.194-5.542-2.058V134.78c0-0.226-0.064-1.676,1.061-2.261
	c1.683-0.838,7.525-0.648,8.89-0.596L134.195,132.06z"/>
<path fill="#D20019" d="M234.085,214.31c0-2.94,0-5.977,0-9.327c-4.862,0.596-7.668,0.821-13.895,1.041c0-12.415,0-33.02,0-48.067
	c0-15.14,0-29.712,0-42.566c0.004-4.037,0.333-5.954,1.02-9.972c-6.874,4.925-13.431,9.16-20.271,13.073
	c0.807,2.162,1.136,3.499,1.136,6.8c0,10.578,0,23.166,0,36.524c0,13.438,0,32.797,0,44.307c-0.004,3.648-0.329,5.315-1.136,8.341
	C212.181,214.422,222.911,214.37,234.085,214.31z"/>
<path fill="#D20019" d="M1.459,146.072c1.679,4.417,4.862,8.077,11.895,14.19c0.733,0.652,1.436,1.269,2.161,1.892
	c5.933,4.769,9.632,6.896,10.845,13.875c0.216,1.327,0.343,4.212,0.346,7.251c0,2.814,0,11.73,0,14.397c0,4.355,0,7.005-2.171,8.79
	c-0.238,0.184-0.559,0.34-0.922,0.471c-0.216,0.079-0.453,0.146-0.698,0.204c-1.383,0.322-3.136,0.307-4.312-0.133
	c-1.504-0.679-2.498-1.632-2.744-3.997c-0.11-0.919-0.118-2.972-0.118-4.745c0-6.985,0-20.497,0-28.286
	c-5.333-0.957-10.43-1.938-15.734-3.036c0,15.988,0,36.321,0,47.501c5.229,0.477,15.921,1.042,20.195,1.057
	c8.009,0.01,16.211,0.239,19.968-2.976c3.531-3.371,3.425-8.44,3.421-13.955c0-3.664,0-13.568,0-17.415
	c0.015-6.517,0.446-13.927-4.565-20.046c-5.448-6.031-16.601-10.964-20.082-17.974c-0.453-0.928-0.792-2.81-0.797-8.046
	c0-4.812,0-9.3,0-13.787c0-1.832,0.111-2.949,0.228-3.294c0.37-2.405,1.469-2.824,2.85-2.4c1.453,0.475,2.789,1.394,3.689,2.282
	c0.224,0.216,0.423,0.431,0.592,0.64c0.017,0.022,0.043,0.052,0.056,0.077c2.271,3.082,2.286,6.8,2.286,10.323
	c0,5.122,0,10.278,0,15.795c4.989,1.651,9.759,3.101,14.72,4.485c0-11.395,0-21.377,0-29.135
	c-12.41-7.172-26.443-17.033-30.356-19.861c-3.854-2.786-6.979-3.993-9.002-2.931c-1.562,0.619-2.596,2.84-2.941,6.27
	c-0.315,3.457-0.261,7.072-0.261,8.664c0,5.354,0,9.321,0,14.871C-0.002,136.764-0.121,141.634,1.459,146.072z"/>
<path fill="#D20019" d="M52.83,209.388c0.361,1.09,1.919,4.136,4.682,5.076c3.376,0.978,8.965,1.167,13.118,1.173
	c0.584,0.006,1.134,0.006,1.715,0.006c1.504,0,10.784,0.061,14.264-0.921c3.356-1.075,4.216-2.729,4.797-3.709
	c1.014-1.602,1.014-3.73,1.014-11.273c0-2.603,0-11.405,0-14.062c-5.336-0.183-10.433-0.398-15.75-0.686
	c0,3.457,0.01,12.998,0.01,16.3c0.004,5.431,0.214,7.174-1.611,8.129c-0.066,0.04-0.133,0.073-0.21,0.102
	c-0.035,0.021-0.077,0.045-0.118,0.058c-0.353,0.096-1.476,0.187-2.168,0.179c-4.993-0.091-4.466-1.099-4.449-8.731
	c0-5.045,0-16.381,0-21.669c8.241,0.667,16.106,1.152,24.296,1.512c0-5.234,0-10.206,0-15.126c0.017-5.259,0.469-8.804-2.733-11.747
	c-2.816-2.465-6.056-3.211-15.523-5.159c-1.229-0.254-2.419-0.502-3.643-0.775c-6.393-1.402-11.386-2.167-13.009-1.977
	c-1.742,0.414-2.617,1.024-3.54,2.035c-1.604,2.132-1.597,4.424-1.597,10.979c0,11.958,0,30.381,0,41.667
	C52.369,205.612,52.261,207.541,52.83,209.388z M69.838,154.303c1.221-0.219,3.528,0.146,4.792,0.765
	c0.166,0.085,0.32,0.169,0.449,0.265c0,0.004,0,0.004,0.008,0.006c1.599,1.324,1.584,2.253,1.584,5.046c0,4.155,0,8.3,0,12.682
	c-2.895-0.261-5.66-0.534-8.546-0.842c0-4.474,0-8.697,0-12.926C68.108,157.495,67.763,155.016,69.838,154.303z"/>
<path fill="#D20019" d="M101.208,205.082c-0.008,1.971-0.468,6.052,3.878,8.919c2.375,1.356,9.053,1.642,15.634,1.645
	c7.905-0.002,11.958-0.365,13.812-0.999c5.417-2.048,5.578-5.651,5.583-9.475c0-11.98,0-31.181,0-42.604
	c-0.006-3.591-0.183-7.022-5.583-8.534c-1.873-0.468-5.96-0.48-13.812-0.468c-6.621,0.023-13.29-0.099-15.634,1.104
	c-4.356,2.416-3.886,6.378-3.878,8.071C101.208,174.167,101.208,193.254,101.208,205.082z M120.721,158.733
	c0.811,0.006,1.487,0.068,2.045,0.281c0.239,0.092,0.458,0.219,0.647,0.379c0.62,0.52,0.949,1.44,0.959,3.028
	c0,11.72,0,31.468,0,43.752c-0.017,1.625-0.343,2.58-0.959,3.132c-0.189,0.179-0.42,0.316-0.67,0.422
	c-0.547,0.222-1.223,0.292-2.022,0.299c-2.546-0.019-3.739-0.704-3.765-3.853c0-12.357,0-32.096,0-43.738
	C116.986,159.34,118.186,158.75,120.721,158.733z"/>
<path fill="#D20019" d="M150.274,205.468c0.01,3.042,0.204,5.515,4.101,8.208c4.408,2.663,16.961,3.115,20.895-1.157
	c0.204,0.646,0.41,1.254,0.626,1.877c0.015,0.063,0.038,0.123,0.052,0.179c0.456,0,0.903,0,1.348,0
	c5.045-0.013,9.911-0.029,14.962-0.046c-1.246-2.567-1.691-6.869-1.712-9.969c0-14.208,0-36.667,0-51.7
	c0.008-3.937,0.123-6.89,0.579-9.443c-5.921,1.828-11.578,3.368-17.459,4.741c0.337,1.969,0.568,4.58,0.568,7.332
	c0,13.94,0,35.765,0,49.522c-0.017,1.75-0.36,2.796-1.03,3.406c-0.204,0.193-0.445,0.345-0.729,0.463
	c-0.543,0.227-1.215,0.315-2.007,0.328c-2.324,0.014-3.736-0.584-3.761-4.025c0-13.311,0-34.375,0-47.509
	c0.008-3.436,0.112-5.968,0.682-8.14c-5.998,1.235-11.727,2.192-17.679,2.963c0.346,1.757,0.558,4.09,0.564,6.555
	C150.274,171.586,150.274,192.369,150.274,205.468z"/>
<path fill="#C1980C" d="M52.626,124.767v2.358c14.602,5.335,30.453,8.818,47.238,10.374v-2.183
	C83.054,133.733,67.194,130.188,52.626,124.767z"/>
<path fill="#C1980C" d="M139.868,135.267v2.19c20.582-1.958,39.821-6.875,56.705-14.366v-2.423
	C179.764,128.29,160.514,133.276,139.868,135.267z"/>
<rect x="106.904" y="245.853" fill="#D20019" width="25.758" height="26.525"/>
<path d="M81.18,27.601h-0.032v0.507C81.152,27.937,81.18,27.774,81.18,27.601z"/>
<path d="M93.01,100.703c-1.845,0.019-6.601-0.259-10.208-4.779c6.844,1.332,11.13-4.023,11.463-5.906
	c-1.3,1.44-4.306,4.213-9.458,4.213c-1.098,0-2.363-0.198-3.66-0.591v22.06c5.814,1.357,11.767,2.391,17.816,3.124
	c-3.756-4.617-6.015-10.503-6.015-16.921C92.949,101.498,92.992,101.104,93.01,100.703z"/>
<rect x="81.147" y="245.853" width="25.757" height="26.525"/>
<path fill="#D20019" d="M71.727,80.301c-7.76-2.178-11.259-8.405-11.596-14.049c-0.52-8.654,4.785-12.142,9.168-21.418
	c2.217-4.691,0.451-11.647-0.477-12.328c5.95,2.245,6.842,8.634,6.609,11.457c2.123-4.125,5.53-9.312,5.716-15.855v-0.507H60.452
	c-1.284,3.31-2.962,6.711-5.06,10.081v69.625c8.192,3.505,16.818,6.306,25.755,8.393V93.64C76.5,92.232,71.401,88.162,71.727,80.301
	z"/>
<path fill="#D20019" d="M80.72,58.894c0,0.691,0.16,1.328,0.428,1.898v-3.907C80.864,57.555,80.72,58.248,80.72,58.894z"/>
<path fill="#D20019" d="M55.392,245.853v16.443c2.097,3.37,3.776,6.774,5.06,10.082h20.696v-26.525H55.392z"/>
<path d="M29.633,60.833V92.95c7.946,5.611,16.574,10.427,25.759,14.357V37.682C49.994,46.351,41.734,54.795,29.633,60.833z"/>
<path d="M40.358,245.853c6.479,4.949,11.417,10.637,15.034,16.443v-16.443H40.358z"/>
<path d="M184.176,262.296c3.614-5.806,8.55-11.494,15.029-16.443h-15.029V262.296z"/>
<path d="M184.176,37.682v69.624c9.183-3.93,17.81-8.744,25.755-14.355V60.833C197.828,54.795,189.571,46.351,184.176,37.682z"/>
<path d="M154.753,94.231c-5.151,0-8.155-2.773-9.458-4.213c0.335,1.883,4.619,7.238,11.465,5.906
	c-3.605,4.52-8.361,4.797-10.207,4.779c0.017,0.4,0.061,0.795,0.061,1.2c0,6.418-2.257,12.304-6.013,16.921
	c6.048-0.733,12-1.767,17.814-3.124V93.64C157.119,94.033,155.854,94.231,154.753,94.231z"/>
<path d="M158.417,27.601h-0.033c0,0.179,0.029,0.346,0.033,0.524V27.601z"/>
<rect x="132.662" y="245.853" width="25.755" height="26.525"/>
<path fill="#D20019" d="M158.417,56.897v3.882c0.262-0.568,0.42-1.199,0.42-1.886C158.837,58.253,158.696,57.564,158.417,56.897z"/>
<path fill="#D20019" d="M179.113,27.601h-20.696v0.524c0.191,6.535,3.595,11.717,5.715,15.838
	c-0.233-2.823,0.662-9.212,6.609-11.457c-0.93,0.681-2.694,7.637-0.477,12.328c4.384,9.276,9.687,12.764,9.168,21.418
	c-0.339,5.644-3.834,11.871-11.596,14.049c0.325,7.86-4.772,11.931-9.42,13.339v22.06c8.939-2.087,17.567-4.889,25.759-8.395V37.682
	C182.075,34.312,180.398,30.91,179.113,27.601z"/>
<path fill="#D20019" d="M158.417,245.853v26.525h20.696c1.286-3.308,2.962-6.711,5.063-10.082v-16.443H158.417z"/>
<path fill="#FFFFFF" d="M142.521,104.67c-0.354,2.994-1.294,5.852-2.796,8.504c0.1,0.254,0.498,1.423,0.678,3.25
	c2.925-4.109,4.515-8.911,4.623-13.979C143.925,103.657,142.96,104.381,142.521,104.67z"/>
<path fill="#FFFFFF" d="M102.604,96.873c-2.105,2.063-3.137,4.252-4.127,6.364c0,0-0.445,0.936-0.495,1.041
	c0.325,3.068,1.273,5.971,2.752,8.561l1.2,0.651c2.026,1.115,4.127,2.259,6.967,2.692c0.141-0.196,4.4-6.071,4.519-6.237
	c-1.72-3.439-2.852-6.944-3.456-10.702C109.765,99.18,102.829,96.948,102.604,96.873z"/>
<path fill="#FFFFFF" d="M110.721,94.269c-4.219,0.05-5.804-3.774-5.401-5.582c0.004-0.022,0.017-0.039,0.021-0.06
	c-0.792-0.2-1.462-0.479-2.064-0.781c-0.051,0.306-0.103,0.617-0.103,0.619c-0.283,1.627-0.56,3.191-0.56,4.899
	c0,0.834,0.077,1.708,0.239,2.63c0.229,0.073,7.142,2.286,7.337,2.349c2.792-2.769,5.805-4.966,9.193-6.718
	c0-0.176,0.006-5.537,0.007-7.156c-1.813,0.37-4.142,3.159-7.855,4.254C109.165,90.201,109.568,93.164,110.721,94.269z"/>
<path fill="#FFFFFF" d="M134.241,88.687c0.399,1.808-1.252,5.632-5.409,5.582c1.152-1.105,1.556-4.067-0.815-5.546
	c-3.612-1.065-5.915-3.737-7.702-4.225c0,1.667,0,6.95,0,7.127c3.445,1.765,6.474,3.968,9.249,6.736
	c0.196-0.064,6.974-2.247,7.203-2.321c0.175-0.974,0.258-1.887,0.258-2.761c0-1.662-0.258-3.186-0.524-4.772
	c0,0-0.064-0.382-0.123-0.707c-0.622,0.322-1.325,0.617-2.16,0.827C134.222,88.647,134.237,88.664,134.241,88.687z"/>
<path d="M110.854,98.984c0.601,3.776,1.729,7.252,3.435,10.612c3.728,0.584,7.367,0.578,11.115-0.027
	c1.693-3.27,2.838-6.738,3.5-10.585c-2.721-2.692-5.682-4.837-9.048-6.551C116.506,94.142,113.56,96.286,110.854,98.984z"/>
<path d="M94.549,100.919c1.09,1.409,2.116,2.241,2.729,2.688c0.137-0.292,0.362-0.774,0.362-0.774
	c1.086-2.29,2.116-4.454,4.319-6.613c-0.179-1.009-0.262-1.958-0.262-2.86c0-1.814,0.292-3.454,0.574-5.056
	c0,0,0.104-0.58,0.154-0.869c-0.67,0.012-2.031,0.104-3.683,0.56C96.183,91.88,94.745,96.395,94.549,100.919z"/>
<path fill="#FFFFFF" d="M119.819,124.779c-1.566,0-3.093-0.16-4.541-0.454c-0.212,0.173-1.217,0.917-2.913,1.67
	c2.421,0.741,4.918,1.157,7.454,1.157c2.547,0,5.043-0.42,7.448-1.174c-1.702-0.732-2.698-1.479-2.909-1.654
	C122.903,124.619,121.378,124.779,119.819,124.779z"/>
<path d="M138.135,114.292l0.002-0.004c-2.11,1.154-4.296,2.345-7.325,2.781c-1.319,2.702-3.029,4.356-4.873,6.121
	c0,0-0.449,0.437-0.669,0.653c1.011,0.701,2.184,1.303,3.316,1.731c4.309-1.588,8.122-4.36,10.989-7.899
	c-0.042-1.845-0.391-3.191-0.597-3.836C138.709,113.98,138.135,114.292,138.135,114.292z"/>
<path fill="#FFFFFF" d="M114.152,110.502c-0.118,0.166-4.368,6.014-4.508,6.208c0.587,1.205,1.3,2.278,2.315,3.456
	c0,0,2.347,2.37,2.347,2.372c0,0,0.77,0.745,0.872,0.84c1.552,0.325,3.112,0.493,4.641,0.493c1.521,0,3.079-0.166,4.536-0.443
	c0,0,0.94-0.909,0.94-0.911c1.672-1.579,3.399-3.22,4.685-5.842c-0.152-0.21-0.533-0.73-0.533-0.73s-3.824-5.28-3.949-5.451
	C121.659,111.103,117.941,111.107,114.152,110.502z"/>
<path fill="#FFFFFF" d="M137.698,113.489c0,0,1.103-0.595,1.132-0.585c1.523-2.623,2.467-5.478,2.823-8.388
	c0,0-0.56-1.196-0.562-1.196c-0.581-1.259-1.242-2.682-2.147-4.025c-0.556-0.859-1.196-1.634-1.941-2.374
	c-0.233,0.079-7.015,2.259-7.212,2.322c-0.66,3.859-1.822,7.367-3.545,10.704c0.335,0.462,4.375,6.043,4.491,6.201
	C133.563,115.721,135.668,114.592,137.698,113.489z"/>
<path d="M137.312,87.501c0,0-0.033,0-0.05,0c0.054,0.32,0.15,0.867,0.15,0.867c0.27,1.631,0.535,3.202,0.535,4.916
	c0,0.938-0.09,1.927-0.285,2.983c0.179,0.212,1.672,1.954,1.677,1.956c1.065,1.492,1.776,2.957,2.59,4.712
	c0,0,0.239,0.509,0.362,0.768c0.484-0.341,1.589-1.186,2.748-2.619c-0.146-4.644-1.564-9.142-3.997-12.919
	C139.25,87.601,137.832,87.511,137.312,87.501z"/>
<path fill="#FFFFFF" d="M94.611,102.393c0.055,2.744,0.504,5.421,1.407,7.955c0.778,2.17,1.875,4.209,3.206,6.098
	c0.098-0.695,0.254-1.833,0.254-1.835c0,0,0.381-1.314,0.427-1.454c-1.511-2.638-2.451-5.509-2.798-8.532
	C96.811,104.438,95.789,103.711,94.611,102.393z"/>
<path d="M113.668,123.217l-0.354-0.345l-2.455-2.605c-0.87-1.059-1.522-2.072-2.056-3.172c-3.039-0.466-5.217-1.654-7.316-2.802
	c0,0-0.562-0.304-0.834-0.447c-0.106,0.401-0.329,1.24-0.329,1.24s-0.266,2.455-0.316,2.459c2.888,3.643,6.683,6.407,10.975,8.001
	c1.741-0.607,2.89-1.346,3.364-1.688C114.101,123.623,113.668,123.219,113.668,123.217z"/>
<path fill="#FFFFFF" d="M90.866,42.205c-6.011,0.043-7.24,4.498-7.19,6.021c0.055,1.718,0.87,4.027,3.337,5.284
	c-4.564,0-6.293,3.029-6.293,5.384c0,2.53,1.999,4.421,4.441,4.421c3.558,0,4.811-3.1,4.174-4.525
	c0.195,1.184-1.049,3.399-3.196,3.304c-2.792-0.125-3.408-2.384-3.355-3.418c0.2-3.886,3.291-4.66,5.661-4.566
	c2.243,0.088,4.635-0.214,5.432-2.218c-1.425,1.658-3.645,1.479-4.93,1.22c-1.134-0.229-3.389-1.823-3.054-4.75
	c0.456-3.948,4.462-5.067,6.539-4.72c0-15.832,21.345-20.151,21.345-29.317c0-2.367-2.222-4.623-2.732-5.134
	c4.621,2.336,5.28,5.769,5.28,7.956c0,13.061-14.927,17.167-14.927,26.175c0,3.707,2.227,4.875,3.358,5.413
	c-0.396-0.545-0.558-1.648-0.545-2.521c0.033-2.603,1.935-4.6,4.342-4.864c2.582-0.285,6.202,1.945,5.808,7.223
	c-0.141,1.877-1.242,5.453-4.294,7.617c0.593,0.838,0.964,1.88,0.964,3.031c0,0.456-0.071,0.882-0.175,1.296
	c1.331-1.28,2.696-2.07,3.684-2.534c-1.385-0.988-2.457-2.559-2.457-2.559c1.91-1.494,4.385-4.267,4.385-8.557
	c0-5.519-4.077-7.862-7.2-7.65c-2.904,0.198-5.319,2.276-5.669,5.014c-0.742-4.644,4.535-8.497,8.507-13.011
	c4.362-4.958,7.333-11.915,3.913-18.206c1.238,1.119,3.233,4.106,3.762,5.892c0.524-1.785,2.516-4.772,3.758-5.892
	c-3.421,6.291-0.451,13.248,3.914,18.206c3.973,4.514,9.249,8.367,8.509,13.011c-0.35-2.738-2.771-4.816-5.673-5.014
	c-3.125-0.212-7.2,2.131-7.2,7.65c0,4.29,2.479,7.063,4.39,8.557c0,0-1.074,1.571-2.459,2.559c0.986,0.464,2.351,1.254,3.682,2.534
	c-0.102-0.414-0.175-0.84-0.175-1.296c0-1.15,0.368-2.192,0.961-3.031c-3.046-2.164-4.153-5.74-4.29-7.617
	c-0.395-5.277,3.225-7.508,5.804-7.223c2.414,0.264,4.313,2.261,4.348,4.864c0.008,0.874-0.154,1.976-0.551,2.521
	c1.132-0.539,3.362-1.706,3.362-5.413c0-9.008-14.931-13.115-14.931-26.175c0-2.187,0.666-5.619,5.282-7.956
	c-0.512,0.512-2.729,2.767-2.729,5.134c0,9.166,21.347,13.485,21.347,29.317c2.076-0.347,6.083,0.772,6.539,4.72
	c0.335,2.927-1.92,4.521-3.054,4.75c-1.284,0.26-3.505,0.438-4.928-1.22c0.797,2.004,3.191,2.306,5.43,2.218
	c2.372-0.093,5.463,0.681,5.661,4.566c0.052,1.034-0.563,3.293-3.354,3.418c-2.147,0.096-3.393-2.12-3.197-3.304
	c-0.635,1.425,0.616,4.525,4.173,4.525c2.442,0,4.442-1.891,4.442-4.421c0-2.355-1.725-5.384-6.293-5.384
	c2.467-1.257,3.283-3.566,3.337-5.284c0.05-1.523-1.179-5.978-7.186-6.021c0-13.901-17.979-18.077-17.979-32.949
	c0-1.055,0.156-2.268,0.487-3.5H108.35c0.333,1.231,0.491,2.444,0.491,3.5C108.84,24.128,90.866,28.304,90.866,42.205z"/>
<path fill="#FFFFFF" d="M97.338,17.785c-0.127,5.896-3.707,11.034-4.649,12.713c3.751-3.578,6.185-8.458,6.337-13.376
	c0.204-0.185,0.389-0.366,0.589-0.549c0.9-0.834,1.695-1.656,2.396-2.461h-5.024c0.035,0.147,0.068,0.297,0.096,0.445
	C97.298,15.676,97.359,16.795,97.338,17.785z"/>
<path fill="#FFFFFF" d="M140.536,17.122c0.15,4.918,2.582,9.798,6.333,13.376c-0.94-1.679-4.522-6.817-4.646-12.713
	c-0.014-0.637,0.002-1.327,0.077-2.039c0.054-0.539,0.142-1.09,0.271-1.635h-5.039c0.493,0.568,1.034,1.146,1.626,1.729
	C139.592,16.267,140.049,16.693,140.536,17.122z"/>
<path fill="#FFFFFF" d="M74.163,50.484c-7.625,13.309-3.106,18.586-0.069,20.54c0,0,0.666-1.234,1.719-2.576
	C72.478,66.085,69.546,61.236,74.163,50.484z"/>
<path fill="#FFFFFF" d="M165.363,50.484c7.623,13.309,3.104,18.586,0.069,20.54c0,0-0.666-1.234-1.723-2.576
	C167.046,66.085,169.978,61.236,165.363,50.484z"/>
<path fill="#FFFFFF" d="M107.705,59.004c0,0.572-0.472,1.038-1.061,1.038c-0.587,0-1.057-0.466-1.057-1.038
	c0-0.574,0.47-1.04,1.057-1.04C107.232,57.964,107.705,58.43,107.705,59.004z"/>
<path fill="#FFFFFF" d="M99.033,56.304c0.997,0.83,2.306,1.377,3.412,1.527c-0.11,0.375-0.188,0.763-0.188,1.173
	c0,2.374,1.964,4.3,4.386,4.3c0.541,0,1.053-0.108,1.535-0.285c-1.292,1.04-2.737,1.327-3.778,1.352
	c-2.122,0.046-5.725-1.589-5.771-5.544C98.617,57.876,98.851,56.715,99.033,56.304z"/>
<ellipse fill="#FFFFFF" cx="132.911" cy="59.004" rx="1.059" ry="1.038"/>
<path fill="#FFFFFF" d="M140.923,58.827c-0.048,3.955-3.649,5.59-5.771,5.544c-1.044-0.025-2.488-0.312-3.78-1.352
	c0.485,0.177,0.999,0.285,1.538,0.285c2.423,0,4.385-1.926,4.385-4.3c0-0.41-0.075-0.799-0.189-1.173
	c1.111-0.15,2.391-0.651,3.414-1.527C140.705,56.715,140.936,57.876,140.923,58.827z"/>
<path fill="#FFFFFF" d="M119.783,81.796c4.112,0,5.383,4.716,11.358,4.716c5.08,0,7.618-4.438,8.014-5.155
	c-0.655-5.253,2.68-10.849,8.742-11.275c3.761-0.267,8.032,2.652,8.032,6.555c0,3.905-3.027,5.003-4.267,5.003
	c-1.457,0-4.436-0.764-4.007-4.296c-1.24,3.507,1.616,5.964,4.818,5.729c2.592-0.193,5.746-2.675,5.746-6.52
	c0-3.842-3.649-9.832-11.899-9.085c0,0,1.739-3.264-0.013-7.662c0.778,8.063-6.345,13.063-13.387,9.545
	c0.102,0.807,0.172,1.654,0.172,2.567c0,1.799-0.699,5.199-4.223,5.199c-1.075,0-2.291-0.539-3.112-1.201
	c-0.087-1.595,0.789-5.396,4.203-3.998c-0.462-0.937-1.448-1.338-2.467-1.338c-1.107,0-2.307,1.065-2.896,2.86
	c-0.786,2.397-2.617,4.157-4.813,4.157c-2.201,0-4.032-1.76-4.818-4.157c-0.589-1.795-1.789-2.86-2.896-2.86
	c-1.02,0-2.004,0.401-2.47,1.338c3.416-1.398,4.292,2.403,4.205,3.998c-0.822,0.662-2.037,1.201-3.112,1.201
	c-3.524,0-4.223-3.399-4.223-5.199c0-0.914,0.071-1.76,0.171-2.567c-7.04,3.518-14.164-1.481-13.386-9.545
	c-1.753,4.398-0.012,7.662-0.012,7.662c-8.25-0.747-11.9,5.243-11.9,9.085c0,3.845,3.154,6.327,5.746,6.52
	c3.202,0.235,6.058-2.222,4.818-5.729c0.429,3.532-2.551,4.296-4.007,4.296c-1.24,0-4.267-1.099-4.267-5.003
	c0-3.903,4.271-6.822,8.035-6.555c6.06,0.426,9.397,6.022,8.739,11.275c0.396,0.718,2.934,5.155,8.014,5.155
	C114.393,86.513,115.668,81.796,119.783,81.796z"/>
<path fill="#FFFFFF" d="M123.404,34.768c-1.263-1.777-3.057-5.031-3.733-7.269c-0.676,2.238-2.467,5.492-3.732,7.269
	c1.032-0.445,2.863-0.801,3.732-0.801S122.375,34.322,123.404,34.768z"/>
</svg>
